<svg width="67" height="98" viewBox="0 0 67 98" fill="none" xmlns="http://www.w3.org/2000/svg">
<path d="M0.455087 12.5938C0.455087 6.07262 5.74153 0.786171 12.2627 0.786171C18.7839 0.786171 24.0703 6.07262 24.0703 12.5938V85.9925C24.0703 92.5136 18.7839 97.8001 12.2627 97.8001C5.74153 97.8001 0.455087 92.5136 0.455087 85.9925V12.5938Z" fill="#D6D5B3"/>
<path d="M42.7011 12.5938C42.7011 6.07262 47.9875 0.786171 54.5087 0.786171C61.0298 0.786171 66.3163 6.07262 66.3163 12.5938V85.9925C66.3163 92.5136 61.0298 97.8001 54.5087 97.8001C47.9875 97.8001 42.7011 92.5136 42.7011 85.9925V12.5938Z" fill="#D6D5B3"/>
<path d="M44.1285 6.8913C47.3891 1.24381 54.6105 -0.691173 60.258 2.56941C65.9055 5.82999 67.8405 13.0514 64.5799 18.6989L22.4356 91.6949C19.175 97.3424 11.9536 99.2774 6.3061 96.0168C0.658604 92.7563 -1.27637 85.5348 1.98421 79.8873L44.1285 6.8913Z" fill="#D5B1D9"/>
</svg>
